<svg xmlns="http://www.w3.org/2000/svg" viewBox="0 0 112 118" width="54" height="54" fill="none" aria-hidden="true">
  <path fill="#FF9595" fill-rule="evenodd" clip-rule="evenodd" d="M 92.6425 71.5072 C 92.9052 70.3253 94.0763 69.5801 95.2582 69.8427 L 106.984 72.4484 C 108.166 72.7111 108.911 73.8822 108.648 75.0641 C 108.386 76.2461 107.215 76.9913 106.033 76.7286 L 94.307 74.1229 C 93.1251 73.8603 92.3799 72.6892 92.6425 71.5072 Z"/>
  <path fill="#E4002B" fill-rule="evenodd" clip-rule="evenodd" d="M 72.5452 91.9054 C 73.6847 91.4959 74.9403 92.0877 75.3498 93.2271 L 79.0955 103.65 C 79.505 104.789 78.9132 106.045 77.7738 106.455 C 76.6344 106.864 75.3787 106.272 74.9692 105.133 L 71.2235 94.71 C 70.814 93.5705 71.4058 92.3149 72.5452 91.9054 Z"/>
  <path fill="#E3B6E4" fill-rule="evenodd" clip-rule="evenodd" d="M 24.8864 3.57649 C 26.0592 3.27563 27.2538 3.98247 27.5547 5.15528 L 30.8744 18.0962 C 31.1753 19.269 30.4685 20.4636 29.2957 20.7645 C 28.1229 21.0653 26.9282 20.3585 26.6273 19.1857 L 23.3076 6.2448 C 23.0067 5.072 23.7136 3.87736 24.8864 3.57649 Z"/>
  <path fill="#FF9595" fill-rule="evenodd" clip-rule="evenodd" d="M 5.69922 42.0923 C 5.69922 40.8816 6.68075 39.9 7.89153 39.9 H 19.1287 C 20.3394 39.9 21.321 40.8816 21.321 42.0923 C 21.321 43.3031 20.3394 44.2846 19.1287 44.2846 H 7.89153 C 6.68075 44.2846 5.69922 43.3031 5.69922 42.0923 Z"/>
  <path fill="#E3B6E4" fill-rule="evenodd" clip-rule="evenodd" d="M 84.8609 82.3113 C 85.6723 81.4126 87.0586 81.3419 87.9573 82.1533 L 96.4558 89.8266 C 97.3545 90.638 97.4252 92.0243 96.6138 92.923 C 95.8024 93.8216 94.4161 93.8924 93.5174 93.081 L 85.0189 85.4076 C 84.1202 84.5962 84.0495 83.2099 84.8609 82.3113 Z"/>
  <path fill="#FFC4C0" fill-rule="evenodd" clip-rule="evenodd" d="M 44.339 3.56383 C 45.5188 3.83609 46.2545 5.01319 45.9822 6.19296 L 44.6668 11.893 C 44.3946 13.0727 43.2175 13.8084 42.0377 13.5362 C 40.858 13.2639 40.1223 12.0868 40.3945 10.907 L 41.7099 5.20703 C 41.9822 4.02726 43.1593 3.29158 44.339 3.56383 Z"/>
  <path fill="#E4002B" fill-rule="evenodd" clip-rule="evenodd" d="M 7.76948 19.4737 C 8.39574 18.4375 9.74345 18.1051 10.7797 18.7314 L 25.725 27.7636 C 26.7612 28.3899 27.0936 29.7376 26.4673 30.7739 C 25.841 31.8101 24.4933 32.1424 23.4571 31.5162 L 8.51182 22.4839 C 7.47558 21.8577 7.14323 20.51 7.76948 19.4737 Z"/>
  <path fill="#C599C6" d="M 103.059 40.2806 L 98.3963 35.6135 C 97.8499 35.0764 97.1447 34.73 96.3856 34.6258 C 95.6265 34.5216 94.8541 34.6652 94.1831 35.0351 C 92.1389 36.1698 89.7807 36.6079 87.4653 36.2832 C 85.1499 35.9584 83.0033 34.8885 81.35 33.2352 C 79.6968 31.5819 78.6269 29.4352 78.3021 27.1198 C 77.9774 24.8044 78.4155 22.4461 79.5502 20.4018 C 79.9241 19.7327 80.0699 18.96 79.9655 18.2006 C 79.8612 17.4412 79.5123 16.7364 78.9718 16.1929 L 74.1401 11.3701 C 72.613 9.85212 70.5474 9.00012 68.3942 9.00012 C 66.241 9.00012 64.1754 9.85212 62.6483 11.3701 L 8.36988 65.6497 C 6.85198 67.1768 6 69.2426 6 71.3958 C 6 73.549 6.85198 75.6147 8.36988 77.1419 L 13.0503 81.8224 C 13.6257 82.3809 14.3729 82.7287 15.1707 82.8094 C 15.9685 82.8902 16.7703 82.6992 17.4459 82.2673 C 19.514 80.9561 21.9673 80.3893 24.4009 80.6605 C 26.8344 80.9318 29.1028 82.0248 30.8314 83.7591 C 32.56 85.4935 33.6455 87.7654 33.9087 90.2 C 34.1719 92.6345 33.597 95.086 32.2791 97.1497 C 31.8506 97.8283 31.6641 98.6317 31.7497 99.4297 C 31.8353 100.228 32.188 100.973 32.7507 101.545 L 37.2709 106.048 C 38.7982 107.572 40.8679 108.429 43.0257 108.429 C 45.1836 108.429 47.2533 107.572 48.7806 106.048 L 103.059 51.7684 C 104.577 50.242 105.428 48.177 105.428 46.0245 C 105.428 43.872 104.577 41.807 103.059 40.2806 Z"/>
  <path fill="#E4002B" d="M 92.204 62.6242 L 103.06 51.7682 C 104.577 50.2419 105.429 48.1769 105.429 46.0244 C 105.429 43.8719 104.577 41.8069 103.06 40.2805 L 98.397 35.6134 C 97.8506 35.0763 97.1454 34.7299 96.3863 34.6257 C 95.6272 34.5215 94.8548 34.665 94.1838 35.035 C 92.1396 36.1697 89.7814 36.6078 87.466 36.2831 C 85.1506 35.9583 83.004 34.8884 81.3507 33.2351 C 79.6975 31.5818 78.6276 29.4351 78.3028 27.1197 C 77.9781 24.8042 78.4162 22.446 79.5509 20.4017 C 79.9248 19.7326 80.0706 18.9598 79.9662 18.2005 C 79.8619 17.4411 79.513 16.7363 78.9725 16.1928 L 74.1409 11.3699 C 72.6137 9.852 70.5481 9 68.3949 9 C 66.2418 9 64.1761 9.852 62.649 11.3699 L 51.8066 22.2214 L 92.204 62.6242 Z"/>
  <path fill="#fff" d="M 43.6592 51.0475 C 43.8604 50.7394 44.143 50.4933 44.4757 50.3363 C 44.8084 50.1793 45.1781 50.1177 45.5437 50.1583 C 45.9093 50.1988 46.2565 50.34 46.5467 50.5661 C 46.8368 50.7922 47.0586 51.0944 47.1873 51.439 L 56.2634 75.6201 C 56.3712 75.9118 56.4092 76.2247 56.3744 76.5337 C 56.3396 76.8427 56.2331 77.1393 56.0632 77.3998 C 55.8614 77.7075 55.5783 77.9534 55.2454 78.1102 C 54.9124 78.267 54.5426 78.3285 54.1768 78.288 C 53.811 78.2474 53.4636 78.1064 53.173 77.8805 C 52.8825 77.6546 52.6601 77.3527 52.5306 77.0082 L 43.4412 52.836 C 43.3346 52.5417 43.2987 52.2264 43.3366 51.9157 C 43.3745 51.605 43.485 51.3075 43.6592 51.0475 Z M 54.2213 56.778 C 54.8536 55.7834 55.7398 54.9756 56.7884 54.4377 C 57.7938 53.9261 58.9201 53.6999 60.0451 53.7837 C 61.2144 53.8858 62.3405 54.274 63.3244 54.9141 C 64.3082 55.5542 65.1194 56.4266 65.6865 57.4542 C 66.2157 58.4528 66.4575 59.5787 66.385 60.7066 C 66.3108 61.8904 65.9189 63.0324 65.2505 64.0123 C 64.6157 65.0114 63.7267 65.8237 62.6745 66.3659 C 61.6659 66.8821 60.5339 67.1085 59.4044 67.0199 C 58.2377 66.9152 57.1148 66.5243 56.1354 65.8817 C 55.156 65.239 54.3502 64.3646 53.7897 63.336 C 53.2591 62.3346 53.0158 61.2059 53.0868 60.0748 C 53.1661 58.8947 53.5577 57.7569 54.2213 56.778 Z M 62.5721 62.2638 C 62.8223 61.9037 62.9937 61.4948 63.0749 61.0639 C 63.1562 60.633 63.1456 60.1898 63.0437 59.7633 C 62.8132 58.8996 62.2735 58.1506 61.5272 57.6585 C 60.7808 57.1664 59.8798 56.9655 58.9951 57.0938 C 58.1378 57.2789 57.3877 57.7937 56.9066 58.527 C 56.4255 59.2603 56.252 60.1534 56.4236 61.0135 C 56.5283 61.444 56.717 61.8496 56.9789 62.2069 C 57.2407 62.5642 57.5706 62.8663 57.9496 63.0958 C 58.6833 63.6128 59.5916 63.8191 60.4766 63.6697 C 60.906 63.5983 61.3151 63.4359 61.6765 63.1934 C 62.0379 62.9509 62.3433 62.634 62.5721 62.2638 Z M 34.3785 64.426 C 35.0139 63.4247 35.9046 62.6108 36.959 62.068 C 37.9652 61.5543 39.0936 61.328 40.2201 61.414 C 41.3896 61.5229 42.5145 61.9175 43.4958 62.5629 C 44.4771 63.2084 45.2849 64.085 45.8482 65.1157 C 46.3752 66.1151 46.6168 67.2403 46.5467 68.368 C 46.4493 69.5442 46.0587 70.6773 45.4105 71.6636 C 44.7623 72.6499 43.8772 73.458 42.8362 74.014 C 41.8274 74.5297 40.6956 74.7561 39.5661 74.668 C 38.4006 74.5631 37.2789 74.1725 36.3003 73.5307 C 35.3218 72.8889 34.5165 72.0158 33.9559 70.9885 C 33.4233 69.9878 33.1799 68.8586 33.2529 67.7273 C 33.3302 66.5461 33.7202 65.4068 34.383 64.426 H 34.3785 Z M 42.7338 69.9118 C 42.9848 69.5521 43.1569 69.1434 43.239 68.7125 C 43.321 68.2816 43.3111 67.8382 43.2099 67.4114 C 42.9968 66.5381 42.4487 65.7838 41.6839 65.3114 C 41.3208 65.0571 40.911 64.877 40.4781 64.7815 C 40.0452 64.6861 39.5976 64.6772 39.1613 64.7553 C 38.3028 64.9383 37.5512 65.4526 37.0697 66.1865 C 36.5882 66.9204 36.4157 67.8146 36.5897 68.675 C 36.8279 69.5341 37.3693 70.2779 38.1136 70.7687 C 38.8579 71.2595 39.7548 71.464 40.6383 71.3445 C 41.071 71.2712 41.4826 71.1052 41.8451 70.8579 C 42.2075 70.6107 42.5122 70.2879 42.7383 69.9118 H 42.7338 Z"/>
  <path fill="#fff" d="M 88.9146 61.0533 C 88.6809 61.0535 88.4493 61.0076 88.2333 60.9183 C 88.0173 60.8289 87.8209 60.6979 87.6556 60.5327 L 84.5101 57.3827 C 84.3391 57.218 84.2028 57.0207 84.1092 56.8025 C 84.0156 56.5843 83.9667 56.3496 83.9652 56.1122 C 83.9637 55.8747 84.0097 55.6394 84.1006 55.4201 C 84.1915 55.2007 84.3253 55.0017 84.4942 54.8349 C 84.6631 54.668 84.8637 54.5367 85.0842 54.4486 C 85.3046 54.3604 85.5405 54.3173 85.7779 54.3217 C 86.0153 54.3261 86.2494 54.378 86.4664 54.4743 C 86.6834 54.5706 86.879 54.7093 87.0416 54.8823 L 90.1559 57.9967 C 90.4051 58.2456 90.5748 58.5628 90.6436 58.9082 C 90.7124 59.2536 90.6771 59.6117 90.5423 59.9371 C 90.4075 60.2624 90.1792 60.5405 89.8863 60.736 C 89.5934 60.9315 89.249 61.0358 88.8968 61.0355 L 88.9146 61.0533 Z M 81.0487 53.1872 C 80.5781 53.1864 80.127 52.9992 79.7941 52.6666 L 76.6442 49.5433 C 76.3102 49.2094 76.1226 48.7565 76.1226 48.2842 C 76.1226 47.812 76.3102 47.359 76.6442 47.0251 C 76.9781 46.6912 77.431 46.5036 77.9032 46.5036 C 78.3755 46.5036 78.8284 46.6912 79.1623 47.0251 L 82.3078 50.1707 C 82.557 50.4196 82.7267 50.7368 82.7955 51.0822 C 82.8643 51.4276 82.829 51.7856 82.6942 52.111 C 82.5594 52.4364 82.3311 52.7144 82.0382 52.9099 C 81.7452 53.1055 81.4009 53.2097 81.0487 53.2094 V 53.1872 Z M 73.1873 45.3211 C 72.9535 45.3213 72.722 45.2754 72.5059 45.1861 C 72.2899 45.0968 72.0936 44.9657 71.9282 44.8005 L 68.8005 41.655 C 68.4805 41.3188 68.3046 40.8709 68.3101 40.4068 C 68.3156 39.9428 68.5022 39.4992 68.8301 39.1707 C 69.158 38.8423 69.6012 38.6549 70.0652 38.6485 C 70.5293 38.6422 70.9775 38.8174 71.3142 39.1368 L 74.4597 42.2823 C 74.7086 42.5309 74.8782 42.8478 74.9471 43.1928 C 75.0161 43.5377 74.9812 43.8954 74.8469 44.2206 C 74.7127 44.5458 74.485 44.8239 74.1928 45.0197 C 73.9006 45.2156 73.5568 45.3205 73.205 45.3211 H 73.1873 Z M 65.3213 37.455 C 65.0876 37.4552 64.8561 37.4093 64.64 37.32 C 64.424 37.2307 64.2277 37.0996 64.0623 36.9344 L 60.9168 33.7889 C 60.61 33.4503 60.4452 33.0068 60.4565 32.5501 C 60.4677 32.0934 60.6542 31.6586 60.9772 31.3355 C 61.3002 31.0125 61.7351 30.8261 62.1918 30.8148 C 62.6484 30.8036 63.092 30.9684 63.4305 31.2751 L 66.576 34.4162 C 66.8236 34.6653 66.992 34.9822 67.0599 35.3268 C 67.1278 35.6715 67.0922 36.0285 66.9576 36.353 C 66.8229 36.6774 66.5953 36.9548 66.3033 37.1501 C 66.0114 37.3454 65.6682 37.4499 65.3169 37.4505 L 65.3213 37.455 Z M 57.4554 29.5933 C 56.9839 29.5949 56.5311 29.4093 56.1963 29.0772 L 53.0509 25.9317 C 52.7315 25.5949 52.5563 25.1468 52.5627 24.6827 C 52.569 24.2186 52.7564 23.7754 53.0848 23.4475 C 53.4133 23.1196 53.8569 22.933 54.3209 22.9275 C 54.785 22.922 55.2329 23.0979 55.569 23.4179 L 58.7145 26.5635 C 58.9637 26.8124 59.1334 27.1296 59.2022 27.475 C 59.271 27.8204 59.2357 28.1784 59.1009 28.5038 C 58.9661 28.8292 58.7378 29.1072 58.4449 29.3028 C 58.1519 29.4983 57.8076 29.6025 57.4554 29.6022 V 29.5933 Z"/>
</svg>
