<svg width="161" height="75" viewBox="0 0 161 75" fill="none" xmlns="http://www.w3.org/2000/svg">
<g clip-path="url(#clip0_15184_48171)">
<mask id="mask0_15184_48171" style="mask-type:luminance" maskUnits="userSpaceOnUse" x="12" y="12" width="137" height="215">
<path d="M141.68 12.6326L19.4177 12.6326C15.6795 12.6326 12.649 15.6423 12.649 19.3548L12.649 219.777C12.649 223.49 15.6795 226.499 19.4177 226.499L141.68 226.499C145.418 226.499 148.449 223.49 148.449 219.777L148.449 19.3548C148.449 15.6423 145.418 12.6326 141.68 12.6326Z" fill="white"/>
</mask>
<g mask="url(#mask0_15184_48171)">
<path d="M161 -0.000183105L-1.52588e-05 -0.000183105L-1.52588e-05 239L161 239L161 -0.000183105Z" fill="#EC1B30"/>
<path fill-rule="evenodd" clip-rule="evenodd" d="M121.942 59.1411C121.649 59.0529 121.365 58.7177 121.294 58.4001C121.259 58.1883 121.303 58.0472 121.605 57.4561C122.857 55.0919 123.399 52.9306 123.399 50.2928C123.399 47.7522 122.92 45.7673 121.729 43.3942C121.472 42.8825 121.267 42.415 121.267 42.3444C121.267 42.0974 121.481 41.7269 121.72 41.5857C122.04 41.3917 122.573 41.4181 122.831 41.6651C122.928 41.7533 123.186 42.168 123.399 42.5826C124.252 44.2235 124.829 46.0143 125.114 47.8845C125.291 49.0401 125.327 51.2368 125.185 52.2954C124.918 54.2538 124.394 56.0005 123.55 57.7032C123.035 58.7353 122.724 59.1587 122.449 59.1587C122.404 59.1587 122.316 59.1676 122.253 59.1852C122.218 59.2029 122.067 59.1852 121.942 59.1499V59.1411ZM118.487 57.3679C118.043 57.2444 117.723 56.7063 117.848 56.3093C117.874 56.2123 118.096 55.7624 118.309 55.3124C119.26 53.4069 119.66 51.3603 119.464 49.3577C119.304 47.7081 119.002 46.6671 118.247 45.1586C117.741 44.1352 117.714 43.9853 118.016 43.5706C118.301 43.1737 119.002 43.1207 119.375 43.4471C119.633 43.6765 120.424 45.3085 120.734 46.226C121.747 49.2783 121.596 52.56 120.29 55.5595C119.624 57.0944 119.162 57.5708 118.505 57.3767L118.487 57.3679ZM114.907 55.5683C114.632 55.4448 114.392 55.1625 114.33 54.8714C114.294 54.6949 114.357 54.5008 114.685 53.848C115.884 51.4661 115.893 49.1725 114.73 46.8523C114.214 45.829 114.197 45.6261 114.641 45.2203C114.854 45.0174 114.943 44.9909 115.254 44.9909C115.769 44.9909 116.018 45.238 116.471 46.1466C117.172 47.5404 117.457 48.7667 117.457 50.3193C117.457 51.9161 117.19 53.0188 116.444 54.492C116.018 55.3389 115.805 55.5595 115.378 55.6212C115.254 55.6477 115.041 55.6212 114.916 55.5595L114.907 55.5683ZM111.585 53.8921C111.372 53.8039 111.123 53.5128 111.043 53.257C110.963 52.9747 111.026 52.7453 111.354 52.2248C111.781 51.5544 111.878 51.1838 111.878 50.2928C111.878 49.4107 111.781 49.0402 111.354 48.3697C111.203 48.1403 111.07 47.8669 111.043 47.7522C110.91 47.3111 111.292 46.7553 111.798 46.6671C112.234 46.5877 112.527 46.7729 112.926 47.3905C114.072 49.1548 114.072 51.5103 112.926 53.257C112.5 53.8745 112.047 54.0862 111.576 53.8921H111.585Z" fill="white"/>
<path d="M24.4897 40.9859C36.7213 40.9859 45.2132 29.7469 45.2132 20.5634C45.2132 13.8853 38.942 10.9565 32.9817 10.9565C19.5598 10.9565 12.2582 23.0512 12.2493 31.3789C12.2493 38.057 18.5827 40.9859 24.4897 40.9859ZM65.6436 10.9653C52.2306 10.9653 44.9201 23.06 44.9112 31.3878C44.9112 38.0659 51.2535 40.9947 57.1605 40.9947C69.3921 40.9947 77.884 29.7557 77.884 20.5722C77.884 13.8941 71.595 10.9653 65.6436 10.9653ZM56.5565 53.8039C50.2942 59.8469 38.8798 64.0813 29.5707 63.0492C20.0306 61.9817 12.4358 55.5154 9.318 48.502H8.66068C10.5882 59.4763 20.2083 70.3007 34.0831 71.174C45.0889 71.8621 55.2152 68.5363 62.8011 62.0435L65.9012 70.7682L70.4047 48.5285L49.548 48.4667L56.5565 53.8127V53.8039Z" fill="white"/>
</g>
<path d="M88.6322 54.8892L86.065 57.9416V63.6757H91.6967V54.8892H88.6322Z" fill="#D1D3D4"/>
<path d="M95.8094 54.8892H92.7449V63.6757H98.3765V57.9416L95.8094 54.8892Z" fill="#D1D3D4"/>
<path d="M103.502 61.0733V50.8577H96.5822V54.1747L98.9095 56.9359L99.3093 57.4123C99.3892 57.5093 99.4336 57.624 99.4336 57.7475V63.6669H101.05C102.409 63.6669 103.511 62.5024 103.511 61.0733H103.502Z" fill="#D1D3D4"/>
<path d="M99.3004 43.2621L98.9006 43.7208L96.5733 46.4203V49.8167H103.493V39.5216C103.493 38.0925 102.392 36.928 101.032 36.928H99.4158V42.9357C99.4158 43.0592 99.3714 43.1827 99.2915 43.2709L99.3004 43.2621Z" fill="#D1D3D4"/>
<path d="M88.6322 45.7145H91.6967V36.928H86.065V42.7328L88.6322 45.7145Z" fill="#D1D3D4"/>
<path d="M85.1412 57.421L85.541 56.9447L87.8682 54.1834V50.8665H80.9397V61.0821C80.9397 62.5112 82.0412 63.6757 83.4002 63.6757H85.0169V57.7563C85.0169 57.6328 85.0613 57.5181 85.1412 57.421Z" fill="#D1D3D4"/>
<path d="M95.8183 45.7145L98.3765 42.7328V36.928H92.7449V45.7145H95.8183Z" fill="#D1D3D4"/>
<path d="M85.541 43.7296L85.1412 43.2709C85.0613 43.1739 85.0169 43.0592 85.0169 42.9357V36.928H83.4002C82.0412 36.928 80.9397 38.0925 80.9397 39.5216V49.8167H87.8682V46.4203L85.541 43.7208V43.7296Z" fill="#D1D3D4"/>
<path d="M92.2208 53.8482H95.5341V50.3371V46.7555H92.2208H88.9164V50.3371V53.8482H92.2208Z" fill="#D1D3D4"/>
</g>
<defs>
<clipPath id="clip0_15184_48171">
<rect width="161" height="75" fill="white"/>
</clipPath>
</defs>
</svg>
