<svg width="165" height="43" viewBox="0 0 165 43" fill="none" xmlns="http://www.w3.org/2000/svg">
<path fill-rule="evenodd" clip-rule="evenodd" d="M3.88671 15.4149H7.71363L8.33269 12.2869H4.50577L3.88671 15.4149ZM1.38232 27.9271H5.23739L7.37596 17.1058H3.54904L1.38232 27.9271ZM10.612 30.9707H6.75693L9.09248 19.2757H7.76994L8.19202 17.1058H9.5427C10.3025 14.175 12.441 12.2869 15.5363 12.2869C16.4649 12.2869 17.4216 12.456 18.2658 12.7377L17.8156 15.0204C17.0277 14.654 16.2117 14.5695 15.3394 14.5695C13.9043 14.5695 13.5947 15.6404 13.4259 16.5703L13.3415 17.0776H16.2117L15.7615 19.2475H12.9475L10.612 30.9707ZM18.9411 28.1808C23.4997 28.1808 26.6513 23.9537 26.6513 20.4874C26.6513 17.9794 24.3157 16.8803 22.0927 16.8803C17.1121 16.8803 14.3826 21.4456 14.3826 24.5736C14.3826 27.0535 16.7463 28.1808 18.9411 28.1808ZM38.8074 20.4874C38.8074 23.9537 35.6558 28.1808 31.0973 28.1808C28.9024 28.1808 26.5387 27.0535 26.5387 24.5736C26.5387 21.4456 29.2682 16.8803 34.2488 16.8803C36.4718 16.8803 38.8074 17.9794 38.8074 20.4874ZM45.0261 27.9271H48.853L52.0328 12.2869H48.1777L47.1647 17.1058C46.6582 16.993 46.1517 16.9367 45.617 16.9367C41.8464 16.9367 38.4134 21.8401 38.4134 25.3345C38.4134 26.7717 39.342 28.1807 40.8897 28.1807C43.1127 28.1807 44.6322 27.0817 45.2794 26.039H45.5045L45.0261 27.9271ZM22.5148 39.5093C26.595 39.7631 30.3656 38.523 33.1795 36.0712L34.3333 39.3404L35.9935 30.9707L28.2552 30.9426L30.8721 32.9433C28.5647 35.2259 24.3157 36.8321 20.8546 36.4376C17.3091 36.0431 14.467 33.6197 13.3133 30.9707H13.0601C13.7917 35.1131 17.3654 39.1994 22.5148 39.5093Z" fill="#69022D"/>
<path d="M62.7399 27.7399C62.5421 27.7399 62.4434 27.6417 62.4434 27.4453V12.8422C62.4434 12.6458 62.5421 12.5476 62.7399 12.5476H68.3129C70.0083 12.5476 71.308 12.9123 72.2121 13.6418C73.1163 14.3713 73.5682 15.3672 73.5682 16.6298C73.5682 17.3452 73.3633 17.9764 72.9536 18.5235C72.5439 19.0706 71.9789 19.4915 71.2585 19.786C72.1626 20.0526 72.8619 20.5085 73.3563 21.1538C73.8507 21.7991 74.098 22.5636 74.098 23.4474C74.098 24.3171 73.8791 25.0746 73.441 25.7199C73.0031 26.3652 72.3604 26.8632 71.5129 27.2139C70.6794 27.5646 69.6692 27.7399 68.4826 27.7399H62.7399ZM68.3129 18.755C68.977 18.755 69.4998 18.5796 69.8811 18.2289C70.2767 17.8782 70.4745 17.4434 70.4745 16.9243C70.4745 16.3913 70.2908 15.9704 69.9236 15.6618C69.5561 15.3532 69.0195 15.1989 68.3129 15.1989H65.4737V18.755H68.3129ZM68.4826 25.0886C69.2879 25.0886 69.8952 24.9273 70.3049 24.6047C70.7286 24.268 70.9405 23.8121 70.9405 23.2369C70.9405 22.6618 70.7286 22.2129 70.3049 21.8902C69.8952 21.5536 69.2879 21.3853 68.4826 21.3853H65.4737V25.0886H68.4826Z" fill="#69022D"/>
<path d="M80.9214 28.0135C79.8479 28.0135 78.8942 27.775 78.0608 27.298C77.2273 26.8211 76.5702 26.1548 76.0899 25.2991C75.6239 24.4293 75.3906 23.4334 75.3906 22.3111C75.3906 21.245 75.6098 20.2841 76.0477 19.4284C76.4996 18.5726 77.1282 17.8993 77.9336 17.4083C78.753 16.9174 79.6852 16.6719 80.7306 16.6719C81.7194 16.6719 82.5813 16.8963 83.3157 17.3452C84.0645 17.7941 84.6439 18.4113 85.0533 19.1969C85.463 19.9825 85.6679 20.8803 85.6679 21.8903C85.6679 22.0726 85.6538 22.3602 85.6257 22.753C85.6113 22.9353 85.5055 23.0265 85.3077 23.0265H78.2937C78.3928 23.8261 78.6894 24.4504 79.1838 24.8993C79.6782 25.3482 80.2927 25.5726 81.0272 25.5726C81.9597 25.5726 82.6801 25.2009 83.1888 24.4574C83.3017 24.3031 83.4359 24.268 83.5912 24.3522L85.3288 25.1728C85.5126 25.271 85.5761 25.3762 85.5196 25.4884C85.124 26.26 84.5378 26.8772 83.7609 27.3401C82.984 27.7891 82.0374 28.0135 80.9214 28.0135ZM82.892 21.0275C82.8213 20.3682 82.5883 19.8632 82.1927 19.5125C81.7973 19.1478 81.3027 18.9654 80.7095 18.9654C80.116 18.9654 79.6076 19.1548 79.1838 19.5336C78.7741 19.8983 78.4916 20.3963 78.3362 21.0275H82.892Z" fill="#69022D"/>
<path d="M90.4997 27.4454C90.4997 27.6417 90.4006 27.7399 90.2031 27.7399H87.9145C87.7167 27.7399 87.6177 27.6417 87.6177 27.4454V17.24C87.6177 17.0436 87.7167 16.9454 87.9145 16.9454H90.097C90.2948 16.9454 90.3936 17.0436 90.3936 17.24V18.3763C90.9446 17.7871 91.5096 17.3592 92.089 17.0927C92.6822 16.8121 93.3178 16.6719 93.996 16.6719C95.2251 16.6719 96.1714 17.0646 96.8355 17.8502C97.5136 18.6218 97.8527 19.6809 97.8527 21.0275V27.4454C97.8527 27.6417 97.7537 27.7399 97.5559 27.7399H95.2673C95.0698 27.7399 94.9707 27.6417 94.9707 27.4454V21.2801C94.9707 20.6628 94.8295 20.1789 94.5469 19.8282C94.2644 19.4775 93.8477 19.3021 93.2967 19.3021C92.8305 19.3021 92.3574 19.4284 91.8771 19.6809C91.4108 19.9334 90.9516 20.3121 90.4997 20.8171V27.4454Z" fill="#69022D"/>
<path d="M105.311 28.0135C104.238 28.0135 103.284 27.775 102.45 27.298C101.617 26.8211 100.96 26.1548 100.48 25.2991C100.014 24.4293 99.7803 23.4334 99.7803 22.3111C99.7803 21.245 99.9995 20.2841 100.437 19.4284C100.889 18.5726 101.518 17.8993 102.323 17.4083C103.143 16.9174 104.075 16.6719 105.12 16.6719C106.109 16.6719 106.971 16.8963 107.705 17.3452C108.454 17.7941 109.034 18.4113 109.443 19.1969C109.853 19.9825 110.058 20.8803 110.058 21.8903C110.058 22.0726 110.043 22.3602 110.015 22.753C110.001 22.9353 109.895 23.0265 109.697 23.0265H102.683C102.782 23.8261 103.079 24.4504 103.573 24.8993C104.068 25.3482 104.682 25.5726 105.417 25.5726C106.349 25.5726 107.07 25.2009 107.578 24.4574C107.691 24.3031 107.826 24.268 107.981 24.3522L109.718 25.1728C109.902 25.271 109.966 25.3762 109.909 25.4884C109.514 26.26 108.927 26.8772 108.151 27.3401C107.374 27.7891 106.427 28.0135 105.311 28.0135ZM107.282 21.0275C107.211 20.3682 106.978 19.8632 106.582 19.5125C106.187 19.1478 105.693 18.9654 105.099 18.9654C104.506 18.9654 103.997 19.1548 103.573 19.5336C103.164 19.8983 102.881 20.3963 102.726 21.0275H107.282Z" fill="#69022D"/>
<path d="M115.885 27.4455C115.885 27.6419 115.787 27.7401 115.589 27.7401H113.3C113.102 27.7401 113.004 27.6419 113.004 27.4455V19.5127H111.118C110.92 19.5127 110.821 19.4145 110.821 19.2181V17.2402C110.821 17.0438 110.92 16.9456 111.118 16.9456H113.004V16.63C113.004 15.3955 113.434 14.3644 114.296 13.5368C115.158 12.6951 116.549 12.155 118.47 11.9166L118.81 11.8955C118.894 11.8955 118.951 11.9166 118.979 11.9586C119.021 12.0007 119.05 12.0779 119.064 12.1901L119.255 14.147V14.1891C119.255 14.3434 119.163 14.4346 118.979 14.4626C118.132 14.5608 117.482 14.7081 117.03 14.9045C116.578 15.0869 116.274 15.3183 116.119 15.5989C115.963 15.8795 115.885 16.2372 115.885 16.6721V16.9456H118.852C119.05 16.9456 119.149 17.0438 119.149 17.2402V19.2181C119.149 19.4145 119.05 19.5127 118.852 19.5127H115.885V27.4455Z" fill="#69022D"/>
<path d="M123.704 27.4454C123.704 27.6418 123.605 27.74 123.407 27.74H121.097C120.899 27.74 120.801 27.6418 120.801 27.4454V17.24C120.801 17.0436 120.899 16.9454 121.097 16.9454H123.407C123.605 16.9454 123.704 17.0436 123.704 17.24V27.4454ZM125.017 13.221C125.06 13.2771 125.081 13.3332 125.081 13.3893C125.081 13.4735 125.025 13.5507 124.911 13.6208L121.203 15.6408C121.161 15.6689 121.104 15.6829 121.034 15.6829C120.935 15.6829 120.857 15.6408 120.801 15.5566L120.08 14.4204C120.038 14.3502 120.017 14.2941 120.017 14.2521C120.017 14.1959 120.066 14.1188 120.165 14.0206L123.555 11.4745C123.612 11.4324 123.682 11.4114 123.767 11.4114C123.852 11.4114 123.923 11.4535 123.979 11.5376L125.017 13.221Z" fill="#69022D"/>
<path d="M131.122 28.0135C130.048 28.0135 129.094 27.775 128.261 27.298C127.442 26.8071 126.806 26.1337 126.354 25.278C125.902 24.4083 125.676 23.4263 125.676 22.3322C125.676 21.252 125.902 20.2841 126.354 19.4284C126.82 18.5586 127.463 17.8853 128.282 17.4083C129.116 16.9174 130.062 16.6719 131.122 16.6719C132.238 16.6719 133.156 16.9244 133.876 17.4294C134.597 17.9344 135.148 18.6147 135.529 19.4705C135.543 19.4985 135.55 19.5406 135.55 19.5967C135.55 19.6949 135.487 19.7791 135.36 19.8492L133.453 20.6278C133.368 20.6558 133.318 20.6698 133.304 20.6698C133.22 20.6698 133.142 20.6067 133.071 20.4805C132.633 19.6949 131.983 19.3021 131.122 19.3021C130.373 19.3021 129.766 19.5827 129.299 20.1438C128.833 20.7049 128.6 21.4273 128.6 22.3111C128.6 23.2369 128.833 23.9804 129.299 24.5416C129.766 25.1027 130.373 25.3832 131.122 25.3832C132.054 25.3832 132.76 24.9764 133.241 24.1628C133.325 23.9945 133.453 23.9454 133.622 24.0155L135.508 24.7941C135.607 24.8362 135.671 24.8853 135.699 24.9414C135.727 24.9834 135.727 25.0395 135.699 25.1097C135.303 25.9794 134.724 26.6808 133.961 27.2139C133.198 27.747 132.252 28.0135 131.122 28.0135Z" fill="#69022D"/>
<path d="M140.234 27.4453C140.234 27.6417 140.134 27.7399 139.937 27.7399H137.627C137.429 27.7399 137.33 27.6417 137.33 27.4453V17.24C137.33 17.0436 137.429 16.9454 137.627 16.9454H139.937C140.134 16.9454 140.234 17.0436 140.234 17.24V27.4453ZM138.771 15.1147C138.235 15.1147 137.797 14.9604 137.458 14.6518C137.133 14.3432 136.97 13.9294 136.97 13.4103C136.97 12.9193 137.133 12.5266 137.458 12.232C137.797 11.9234 138.235 11.769 138.771 11.769C139.308 11.769 139.739 11.9234 140.064 12.232C140.389 12.5266 140.551 12.9264 140.551 13.4314C140.551 13.9364 140.389 14.3432 140.064 14.6518C139.739 14.9604 139.308 15.1147 138.771 15.1147Z" fill="#69022D"/>
<path d="M147.67 28.0135C146.596 28.0135 145.643 27.775 144.809 27.298C143.976 26.8211 143.333 26.1548 142.881 25.2991C142.429 24.4293 142.203 23.4404 142.203 22.3322C142.203 21.266 142.429 20.3051 142.881 19.4494C143.347 18.5797 143.997 17.8993 144.83 17.4083C145.664 16.9174 146.61 16.6719 147.67 16.6719C148.743 16.6719 149.69 16.9103 150.509 17.3873C151.343 17.8642 151.985 18.5376 152.437 19.4073C152.89 20.263 153.116 21.238 153.116 22.3322C153.116 23.4123 152.883 24.3872 152.416 25.257C151.964 26.1127 151.321 26.786 150.488 27.277C149.669 27.768 148.729 28.0135 147.67 28.0135ZM147.67 25.3832C148.433 25.3832 149.04 25.1097 149.492 24.5626C149.958 24.0155 150.191 23.279 150.191 22.3532C150.191 21.4414 149.958 20.7049 149.492 20.1438C149.026 19.5827 148.419 19.3021 147.67 19.3021C146.921 19.3021 146.306 19.5827 145.826 20.1438C145.36 20.6909 145.127 21.4133 145.127 22.3111C145.127 23.2369 145.36 23.9804 145.826 24.5416C146.306 25.1027 146.921 25.3832 147.67 25.3832Z" fill="#69022D"/>
<path d="M158.732 28.0135C156.683 28.0135 155.236 27.256 154.388 25.741C154.36 25.6568 154.346 25.6077 154.346 25.5937C154.346 25.4955 154.402 25.4113 154.515 25.3412L156.041 24.4784C156.111 24.4364 156.168 24.4153 156.21 24.4153C156.295 24.4153 156.373 24.4714 156.443 24.5837C157.008 25.3412 157.778 25.7199 158.753 25.7199C159.276 25.7199 159.671 25.6287 159.94 25.4464C160.222 25.264 160.364 25.0185 160.364 24.7099C160.364 24.4013 160.215 24.1628 159.919 23.9945C159.636 23.8121 159.142 23.6367 158.435 23.4684C157.291 23.1879 156.359 22.7951 155.638 22.2901C154.918 21.771 154.558 21.0135 154.558 20.0175C154.558 19.3863 154.734 18.8181 155.087 18.3132C155.441 17.7941 155.942 17.3943 156.592 17.1137C157.242 16.8192 157.983 16.6719 158.817 16.6719C160.766 16.6719 162.158 17.4083 162.991 18.8813C163.02 18.9654 163.034 19.0145 163.034 19.0286C163.034 19.1127 162.977 19.1899 162.864 19.26L161.338 20.0386C161.254 20.0666 161.197 20.0807 161.169 20.0807C161.07 20.0807 160.992 20.0316 160.936 19.9334C160.47 19.26 159.784 18.9233 158.88 18.9233C158.442 18.9233 158.082 19.0075 157.8 19.1759C157.531 19.3442 157.397 19.5616 157.397 19.8282C157.397 20.1087 157.531 20.3261 157.8 20.4805C158.082 20.6207 158.541 20.768 159.177 20.9223C159.968 21.1468 160.639 21.3853 161.19 21.6378C161.741 21.8903 162.207 22.255 162.588 22.732C162.984 23.1949 163.182 23.7981 163.182 24.5416C163.182 25.2149 162.998 25.8181 162.631 26.3512C162.278 26.8702 161.762 27.277 161.084 27.5716C160.42 27.8662 159.636 28.0135 158.732 28.0135Z" fill="#69022D"/>
</svg>
